<?xml version="1.0" encoding="UTF-8"?>
<svg id="Laag_1" data-name="Laag 1" xmlns="http://www.w3.org/2000/svg" viewBox="0 0 27.36 35.76">
  <defs>
    <style>
      .cls-1 {
        fill: #4257cb;
      }

      .cls-1, .cls-2 {
        stroke-width: 0px;
      }

      .cls-2 {
        fill: #fdfdfe;
      }
    </style>
  </defs>
  <path class="cls-2" d="m27.36,35.76H0V0h27.36v35.76ZM2.19,4.27v21.62h3.82v-14.5c.26.22.37.47.47.71,1.74,4.3,3.49,8.6,5.19,12.92.28.71.63,1.06,1.38.92.8-.15,1.8.47,2.27-.85.84-2.35,1.85-4.64,2.79-6.96.9-2.22,1.8-4.43,2.69-6.65.09.02.18.04.28.06v14.37h3.78V4.27c-1.31,0-2.55.06-3.77-.02-.82-.05-1.19.24-1.48.98-1.43,3.61-2.91,7.2-4.39,10.8-.53,1.3-1.09,2.6-1.71,4.07-.22-.5-.36-.78-.48-1.07-1.9-4.62-3.78-9.25-5.71-13.86-.16-.38-.65-.84-1.01-.86-1.34-.1-2.69-.04-4.12-.04Z"/>
  <path class="cls-1" d="m2.19,4.27c1.43,0,2.79-.06,4.12.04.37.03.86.49,1.01.86,1.93,4.61,3.81,9.24,5.71,13.86.12.29.25.57.48,1.07.62-1.47,1.18-2.77,1.71-4.07,1.47-3.6,2.96-7.19,4.39-10.8.29-.74.66-1.04,1.48-.98,1.22.08,2.46.02,3.77.02v21.64h-3.78v-14.37c-.09-.02-.18-.04-.28-.06-.9,2.22-1.8,4.43-2.69,6.65-.94,2.32-1.94,4.61-2.79,6.96-.48,1.32-1.47.71-2.27.85-.75.14-1.1-.21-1.38-.92-1.7-4.32-3.45-8.61-5.19-12.92-.1-.25-.21-.49-.47-.71v14.5h-3.82V4.27Z"/>
</svg>